# xmcd
#
# Track frame offsets: 
#        150
#        11265
#        28178
#        45008
#        61143
#        73295
#        88858
#        96655
#        111543
#        127260
#        136228
#        145310
#        162016
#        177456
#
# Disc length: 2480 seconds
#
# Revision: 0
# Processed by: cddbd v1.5.2PL0 Copyright (c) Steve Scherf et al.
# Submitted via: ExactAudioCopy v0.99pb4
#
DISCID=cb09ae0e
DTITLE=Ryan Shaw - This Is Ryan Shaw
DYEAR=2008
DGENRE=Soul
TTITLE0=Do The 45
TTITLE1=We Got Love
TTITLE2=Nobody
TTITLE3=I Am Your Man
TTITLE4=Working On A Building Of Love
TTITLE5=I Found A Love
TTITLE6=I Do The Jerk
TTITLE7=Lookin' For A Love
TTITLE8=I'll Always Love You
TTITLE9=I'll Be Satisfied
TTITLE10=Mish Mash
TTITLE11=Over and Done
TTITLE12=I Found A Love - A Capella Version (Bonustrack)
TTITLE13=I'll Be Satisfied - A Capella Version (Bonustrack)
EXTD=
EXTT0=
EXTT1=
EXTT2=
EXTT3=
EXTT4=
EXTT5=
EXTT6=
EXTT7=
EXTT8=
EXTT9=
EXTT10=
EXTT11=
EXTT12=
EXTT13=
PLAYORDER=
